<svg width="35" height="35" viewBox="0 0 35 35" fill="none" xmlns="http://www.w3.org/2000/svg">
<path d="M20.1923 2.69231C20.1923 1.20312 18.9892 0 17.5 0C16.0108 0 14.8077 1.20312 14.8077 2.69231V14.8077H2.69231C1.20312 14.8077 0 16.0108 0 17.5C0 18.9892 1.20312 20.1923 2.69231 20.1923H14.8077V32.3077C14.8077 33.7969 16.0108 35 17.5 35C18.9892 35 20.1923 33.7969 20.1923 32.3077V20.1923H32.3077C33.7969 20.1923 35 18.9892 35 17.5C35 16.0108 33.7969 14.8077 32.3077 14.8077H20.1923V2.69231Z"/>
</svg>
