<svg width="615" height="820" viewBox="0 0 615 820" fill="none" xmlns="http://www.w3.org/2000/svg">
<path d="M0 102.4C0 45.92 45.92 0 102.4 0H358.4V204.8C358.4 233.12 381.28 256 409.6 256H614.4V716.8C614.4 773.28 568.48 819.2 512 819.2H102.4C45.92 819.2 0 773.28 0 716.8V537.6H278.56L216.16 600C201.12 615.04 201.12 639.36 216.16 654.24C231.2 669.12 255.52 669.28 270.4 654.24L398.4 526.24C413.44 511.2 413.44 486.88 398.4 472L270.4 344C255.36 328.96 231.04 328.96 216.16 344C201.28 359.04 201.12 383.36 216.16 398.24L278.56 460.64H0V102.4ZM614.4 204.8H409.6V0L614.4 204.8Z" fill="#F4F5F7" fill-opacity="0.1"/>
</svg>
